<svg xmlns="http://www.w3.org/2000/svg" viewBox="0 0 64 64" width="64" height="64">
  <defs>
    <linearGradient id="g" x1="0" y1="0" x2="1" y2="0"><stop offset="0" stop-color="#08EBF1"/><stop offset="1" stop-color="#3889FD"/></linearGradient>
    <radialGradient id="tile" cx="50%" cy="42%" r="75%">
      <stop offset="0%" stop-color="#0D3460"/>
      <stop offset="100%" stop-color="#021128"/>
    </radialGradient>
  </defs>
  <rect width="64" height="64" rx="14.3" fill="url(#tile)"/>
  <g transform="translate(-12.326 -15.707) scale(0.07072)">
    <path fill="url(#g)" fill-rule="evenodd" d="M630.5 961.9 C634.9 960.7 638.5 957.9 640.5 953.9 C642.5 950.1 643.3 865.1 641.4 864.3 C640 863.8 623.9 872.5 618.2 876.8 C616.4 878.2 613.8 881.2 612.5 883.5 L610 887.7 610 918.4 C610 951.8 610.2 953.1 615.7 958.3 C618.3 960.8 622.4 962.7 625.5 962.9 C626 963 628.3 962.5 630.5 961.9 Z M596 913 C596.8 911.5 596.6 909.4 595.4 904.8 C592.1 892.1 595.4 881.4 605.5 872.1 C612.9 865.4 621.2 860.6 641.1 851.4 C681.3 832.9 691.1 827.1 704.5 813.6 C724.9 793.1 730 768.6 718.9 745.5 C714.9 737.4 705.5 727.4 696.7 722.1 L691.1 718.8 678.3 722.6 C671.3 724.6 664.9 726.8 664.2 727.3 C663.5 727.9 663 730.6 663 734.1 C663 739.9 663.1 740 666.8 741.9 C672.9 745 680.6 752.6 683.4 758.2 C688.9 769.3 686 781.3 675.3 791 C666.4 799.1 662.1 801.7 631.3 817.2 C598.7 833.5 587.2 840.5 578.9 849 C565.9 862.3 561.8 880.1 568.3 894.4 C574.4 907.7 592.4 919.8 596 913 Z M579.8 832.2 C582.7 830.2 586.8 827.3 589 825.8 C592.9 823.1 593 822.9 593 817.2 L593 811.4 586.6 807.2 C578.4 801.8 572.5 795.2 568.7 787.2 C566 781.5 565.8 780.1 566.2 773.5 C566.8 764.5 569.4 759.6 577.8 751.8 C589.1 741.4 603.5 735.3 666 714.8 C687.7 707.6 710.2 699.7 715.9 697.2 C741.9 685.8 757.8 670 764.5 648.7 C765.9 644.4 767 639.2 767 637.1 C767 631.5 768.1 631 777.9 631.6 C801.3 633.2 819.4 623.2 829 603.6 C831.2 599.2 833.5 593.4 834.2 590.7 C835.3 586.4 835.2 585.8 833.4 584 C831.5 582.1 830.8 582 814 583 C804.4 583.5 789.8 584.1 781.5 584.2 L766.5 584.5 766.2 577.9 C766 573.4 766.3 571 767.2 570.2 C767.9 569.6 778.4 568.4 790.4 567.6 C835.7 564.3 849.7 561.9 862.2 555.3 C878.5 546.7 889.5 529.3 893 506.4 C894.1 499.3 894 498.6 892.3 496.8 C890.4 494.9 890 495 865.4 500.4 C838.7 506.3 789.4 516.1 776.8 518.1 C766.3 519.7 766 519.5 766 511.2 C766 507.2 766.5 503.7 767.2 502.8 C767.9 502 771.2 500.7 774.5 500.1 C788.7 497.1 852.9 480.7 868.5 476 C877.9 473.2 889.8 468.8 895 466.3 C903 462.5 905.8 460.4 913.1 453.1 C922.9 443.2 928.3 433.9 932.5 419.5 C935.4 409.5 937.6 393.5 936.6 389.7 C935.3 384.3 933.5 384.5 914.3 392.1 C879.6 406 825.4 423.1 754.6 442.4 C728.5 449.6 719.1 452.5 717.2 454.2 C711.9 459.2 712 457.7 712 516.7 C712 551.6 711.6 572.9 710.9 575.2 C709.6 580 703.8 585.7 699.1 587 C697.1 587.5 689.9 588.2 683 588.6 C674 589.1 670 589.7 668.8 590.8 C667.2 592.1 667 594.3 667 608 C667 621.6 667.2 624.1 668.8 625.8 C670.4 627.8 671.8 627.9 694.9 628.2 C710.4 628.4 719.8 628.9 720.8 629.6 C723.1 631.2 720.6 639.8 715.9 646.9 C706.4 661.1 694.2 667.1 631 689 C581.4 706.1 563.9 713.8 550.3 724.7 C512.3 755 518.4 806 563.1 831.3 C567.7 833.9 572.2 836 573.1 836 C573.9 836 577 834.3 579.8 832.2 Z M626.3 807.4 C633.5 803.8 640.2 800.1 641.1 799.4 C642.5 798.1 642.7 794.2 642.5 766.5 C642.5 749.2 642.1 734.7 641.7 734.4 C641 733.7 613.6 743.6 611.2 745.3 C610.3 746 610 754.1 610 779.5 C610 797.7 610.3 813 610.7 813.3 C611.8 814.5 612.7 814.1 626.3 807.4 Z M571.1 699.2 L584.5 693.4 584.8 685.5 C585 681.2 584.7 677.3 584.1 676.7 C583.6 676.2 579.9 674.7 575.8 673.3 C567.5 670.5 554.7 664.2 548.4 660 C538.6 653.2 530.5 640.3 531.2 632.6 L531.5 629.5 541 628.9 C546.2 628.5 557.7 628.2 566.5 628.1 C577.6 628 583 627.6 583.8 626.8 C585.5 625.1 585.5 591.6 583.8 590.3 C583.1 589.7 576.5 589 569.1 588.6 C555.2 587.9 550.4 586.7 546.1 582.7 C541 578 541 578.1 541 518.8 C541 466.4 540.9 463.3 539 459.3 C536.5 453.7 533.3 451.9 518.7 448.1 C442.4 428 363.2 402.9 330.3 388.3 C322.4 384.9 322 384.8 319.5 386.4 C317.3 387.9 317 388.7 317 393.9 C317 397.1 317.7 403.5 318.5 408.1 C324.3 439.3 338.4 458 364.5 469.2 C374.6 473.5 396.4 479.7 441.3 491 C464.8 496.9 484.7 502.3 485.5 503 C486.6 503.9 487 506.3 487 511.2 C487 519.5 486.6 519.8 476.7 518.1 C461.5 515.5 412.5 505.6 391.5 500.9 C379.4 498.2 368.3 495.7 366.7 495.3 C364.8 494.9 363.3 495.3 361.9 496.6 C360 498.3 359.9 499.2 360.5 505.4 C362.5 526 373.6 544.9 388.9 554 C401.6 561.5 417.9 564.4 468 568.1 C477.1 568.7 485.1 569.7 485.8 570.3 C487.5 571.7 487.4 582.4 485.6 583.9 C484.2 585.1 473.4 584.7 432.5 582.4 C422.2 581.8 421.4 581.9 419.7 583.8 C417.9 585.8 417.9 586.1 419.5 591.6 C424.1 607.4 434.2 620.5 446.4 626.5 C455.1 630.8 461.3 632 474.1 632 C479.5 632 484.1 632.4 484.4 632.9 C484.8 633.4 485.6 637.4 486.4 641.7 C489.7 660.4 500.4 676.9 516.5 688 C526.3 694.7 549.1 704.8 555.1 704.9 C556.5 705 563.7 702.4 571.1 699.2 Z M628.9 678.9 C635.3 676.6 641 674.2 641.5 673.5 C643.1 671.6 642.5 576.3 640.9 574.4 C639.4 572.5 613.1 572.3 611.2 574.2 C610.3 575.1 610 588.7 610 629 C610 658.5 610.3 683 610.7 683.4 C611.8 684.5 616 683.5 628.9 678.9 Z M636.1 556 C654.1 552.6 669.6 536.9 673.6 517.8 C677.9 497.7 668.2 476.3 650 465.8 C636.2 457.8 615.8 458 601.7 466.3 C595.3 470.1 586.1 480.5 582.7 487.8 C570 514.9 585.4 547.4 614.7 555.5 C620.6 557.1 629 557.3 636.1 556 Z"/>
  </g>
</svg>